<?xml version="1.0" encoding="UTF-8"?>
<svg width="1952px" height="971px" viewBox="0 0 1952 971" version="1.1" xmlns="http://www.w3.org/2000/svg" xmlns:xlink="http://www.w3.org/1999/xlink">
    <!-- Generator: Sketch 53.2 (72643) - https://sketchapp.com -->
    <title>Slice</title>
    <desc>Created with Sketch.</desc>
    <g id="Page-1" stroke="none" stroke-width="1" fill="none" fill-rule="evenodd">
        <g id="knapsack-bg-black" transform="translate(-837.000000, -786.000000)">
            <rect id="Rectangle" fill="#111B26" x="0" y="0" width="3600" height="2545.45"></rect>
            <g id="_142935920" transform="translate(862.000000, 815.000000)">
                <g id="Group" transform="translate(741.000000, 0.000000)">
                    <path d="M0.7896,218.12 C0.79,277.0194 0.79,335.919 0.79,394.832 C0.79,420.135 16.2967,451.2635 49.5864,426.1799 L132.0506,343.8029 L0.7896,218.12 L0.7896,218.12 Z" id="_142937120" fill="#FF5C01"></path>
                    <polygon id="_142937360" fill="#FF9000" points="0.79 218.12 218.49 218.12 220.55 432.12"></polygon>
                    <path d="M220.55,432.12 C263.0227,432.192727 306.5476,431.652121 347.853,432.499394 C353.75118,432.586667 359.0518,432.878788 364.8627,431.695758 C396.0348,425.111518 402.6639,399.690958 378.8942,375.950258 L218.4902,218.117258 L220.54959,432.119258 L220.55,432.12 Z" id="_142935440" fill="#FFAF00"></path>
                    <polygon id="_142936568" fill="#B44300" points="218.49 218.12 243.22 432.11 220.55 432.12"></polygon>
                    <polygon id="_142937576" fill="#BA4C01" points="0.8 218.13 130.96 344.88 115.14 360.65"></polygon>
                    <path d="M0.7896,218.12 C0.79,159.2206 0.79,100.322 0.79,41.408 C0.79,16.105 16.2967,-15.0235 49.5864,10.0601 L132.0506,92.4371 L0.7896,218.12 L0.7896,218.12 Z" id="_142936880" fill="#006FB6"></path>
                    <polygon id="_142936352" fill="#008FC1" points="0.79 218.12 218.49 218.12 220.55 4.12"></polygon>
                    <path d="M220.55,4.12 C263.0227,4.0472727 306.5476,4.586667 347.853,3.740606 C353.75118,3.6521212 359.0518,3.36 364.8627,4.54303 C396.0348,11.12848 402.6639,36.54783 378.8942,60.28853 L218.4902,218.12153 L220.54959,4.12053 L220.55,4.12 Z" id="_142935656" fill="#00A7CC"></path>
                    <polygon id="_142935704" fill="#004578" points="218.49 218.12 243.22 4.135 220.55 4.12"></polygon>
                    <polygon id="_142935608" fill="#004277" points="0.8 218.12 130.96 91.367 115.14 75.592"></polygon>
                </g>
                <polygon id="_111651720" fill="#FFFFFF" fill-rule="nonzero" points="0.95 546.84 50.954 546.84 50.954 727.02 141.46 630.32 202.2 630.32 115.421 719.16 205.1 848.51 147.24 848.51 81.535 754.29 50.954 786.11 50.954 848.51 0.95 848.51"></polygon>
                <path d="M241.46,630.32 L291.4636,630.32 L291.4636,664.2073 C295.04542,658.97215 298.97027,654.0825 303.2406,649.537 C307.5109,644.99033 312.4709,640.9273 318.1182,637.3455 C323.76547,633.76368 329.9643,630.94065 336.7146,628.87398 C343.4649,626.80731 351.1098,625.77459 359.6504,625.77459 C384.4456,625.77459 403.5922,633.35156 417.0916,648.50309 C430.5922,663.65579 437.3413,684.04369 437.3413,709.66549 L437.3413,848.51749 L387.3377,848.51749 L387.3377,724.54149 C387.3377,707.46029 383.27467,694.30509 375.1474,685.07599 C367.02013,675.8469 355.5171,671.23239 340.6407,671.23239 C326.0395,671.23239 314.1922,675.98391 305.1013,685.48939 C296.00918,694.99363 291.4637,708.28699 291.4637,725.36819 L291.4637,848.51719 L241.46,848.51749 L241.4601,630.31919 L241.46,630.32 Z" id="_1116517201" fill="#FFFFFF" fill-rule="nonzero"></path>
                <path d="M632.4,757.18 C626.06303,754.7 618.5564,752.63455 609.8776,750.98121 C601.20002,749.32788 592.0388,748.50121 582.3964,748.50121 C566.6934,748.50121 554.4328,751.53151 545.617,757.59333 C536.80124,763.65394 532.3928,771.91943 532.3928,782.38853 L532.3928,783.215197 C532.3928,793.684297 536.45704,801.673397 544.5843,807.183697 C552.71157,812.692787 562.6982,815.447937 574.5443,815.447937 C582.80975,815.447937 590.4546,814.346117 597.4801,812.142487 C604.50555,809.938847 610.6353,806.839457 615.8704,802.844307 C621.10434,798.849157 625.16858,794.028547 628.0607,788.380107 C630.95403,782.732837 632.40009,776.464907 632.40009,769.577707 L632.40009,757.180107 L632.4,757.18 Z M631.16,848.5085 L631.16,821.6467 C623.72121,830.46367 614.217,837.9012 602.6461,843.9631 C591.0752,850.02371 577.0243,853.05401 560.4946,853.05401 C550.0255,853.05401 540.1067,851.60795 530.7407,848.71462 C521.37343,845.8225 513.1771,841.5522 506.1516,835.90492 C499.12615,830.25644 493.4789,823.23102 489.2086,814.82852 C484.9383,806.4261 482.80254,796.71462 482.80254,785.69402 L482.80254,784.867353 C482.80254,772.746153 485.00739,762.207953 489.41466,753.254053 C493.82314,744.300113 499.95286,736.861353 507.80496,730.938853 C515.65587,725.015213 525.02316,720.606753 535.90556,717.714653 C546.78796,714.821323 558.56616,713.375263 571.23886,713.375263 C584.46306,713.375263 595.68976,714.20193 604.91886,715.855263 C614.14795,717.507383 623.03276,719.712233 631.57336,722.466173 L631.57336,718.334053 C631.57336,703.181353 626.95881,691.610453 617.72976,683.621353 C608.50067,675.631053 595.20736,671.637153 577.85096,671.637153 C565.45336,671.637153 554.43276,672.875943 544.79036,675.355943 C535.14794,677.835943 525.36736,681.141393 515.44976,685.273523 L501.81216,645.188723 C513.93456,639.678423 526.33216,635.271143 539.00486,631.964523 C551.67756,628.659073 566.96846,627.005733 584.87636,627.005733 C617.38546,627.005733 641.49216,635.063913 657.19516,651.180233 C672.89936,667.297833 680.75036,689.957233 680.75036,719.160833 L680.75036,848.508833 L631.16006,848.508833 L631.16,848.5085 Z" id="_11165172012" fill="#FFFFFF" fill-rule="nonzero"></path>
                <path d="M852.66,809.67 C861.20061,809.67 869.2588,808.01788 876.8345,804.71121 C884.41147,801.40576 891.0236,796.79121 896.6709,790.86761 C902.31817,784.94397 906.7957,777.64341 910.1012,768.96461 C913.40787,760.28703 915.0612,750.57551 915.0612,739.83131 L915.0612,739.004643 C915.0612,728.535543 913.40787,718.961043 910.1012,710.283443 C906.79575,701.604653 902.31817,694.234943 896.6709,688.174343 C891.02363,682.113733 884.4115,677.430143 876.8345,674.123443 C869.25874,670.817993 861.2006,669.164653 852.66,669.164653 C844.11939,669.164653 835.9921,670.817983 828.2782,674.123443 C820.56426,677.430113 813.814,682.181623 808.0285,688.380443 C802.24305,694.579233 797.6285,701.948943 794.1849,710.489543 C790.74126,719.030153 789.01884,728.535643 789.01884,739.004743 L789.01884,739.83141 C789.01884,750.30051 790.74126,759.87381 794.1849,768.55141 C797.62854,777.2302 802.24308,784.59991 808.0285,790.66051 C813.81395,796.72233 820.5643,801.40601 828.2782,804.71141 C835.99214,808.01808 844.1194,809.6702 852.66,809.6702 L852.66,809.67 Z M740.255,630.318 L790.2586,630.318 L790.2586,666.6841 C798.24769,655.1132 808.1665,645.4017 820.0125,637.5508 C831.8586,629.69868 846.598,625.7726 864.2307,625.7726 C877.1786,625.7726 889.7143,628.2526 901.8368,633.21139 C913.958,638.17018 924.7726,645.47079 934.2768,655.11319 C943.78104,664.75561 951.4271,676.60289 957.2126,690.65379 C962.99805,704.70349 965.89018,720.82109 965.89018,739.00409 L965.89018,739.830757 C965.89018,758.013757 963.06715,774.130157 957.41866,788.181057 C951.77139,802.231957 944.19446,814.078057 934.69016,823.720457 C925.18471,833.362877 914.30346,840.663457 902.04286,845.622257 C889.78346,850.582257 877.17866,853.061047 864.23076,853.061047 C846.32286,853.061047 831.44526,849.204077 819.59926,841.490147 C807.75316,833.776207 797.97256,824.822247 790.25866,814.628347 L790.25866,914.635347 L740.255,914.635347 L740.25506,630.317347 L740.255,630.318 Z" id="_111651720123" fill="#FFFFFF" fill-rule="nonzero"></path>
                <path d="M1091.94,852.64 C1076.2358,852.64 1060.3255,849.88485 1044.2091,844.37576 C1028.0927,838.86546 1013.1461,830.73816 999.3715,819.99396 L1021.6867,786.10666 C1033.534,794.92242 1045.5861,801.60366 1057.8467,806.14906 C1070.1061,810.69573 1081.8843,812.96845 1093.18,812.96845 C1103.9242,812.96845 1112.2576,810.83269 1118.1812,806.56239 C1124.10484,802.29209 1127.06605,796.57572 1127.06605,789.41329 L1127.06605,788.586623 C1127.06605,784.453293 1125.75696,780.872683 1123.13999,777.841123 C1120.52302,774.810823 1116.9412,772.193853 1112.39579,769.990213 C1107.85034,767.785363 1102.61518,765.719913 1096.69279,763.791423 C1090.76915,761.862943 1084.63949,759.934453 1078.30249,758.005973 C1070.3134,755.801123 1062.25399,753.184153 1054.12669,750.153853 C1045.99942,747.123553 1038.69879,743.197493 1032.22489,738.375653 C1025.75095,733.555043 1020.44669,727.562353 1016.31459,720.399853 C1012.18247,713.236213 1010.1158,704.420453 1010.1158,693.951353 L1010.1158,693.124686 C1010.1158,682.931986 1012.11338,673.701686 1016.10853,665.437386 C1020.10247,657.171936 1025.61277,650.146486 1032.63823,644.360986 C1039.66368,638.575536 1047.92793,634.167086 1057.43343,631.136786 C1066.93767,628.106486 1077.06253,626.591336 1087.80673,626.591336 C1101.58253,626.591336 1115.49523,628.794976 1129.54613,633.203456 C1143.59583,637.611936 1156.40673,643.672556 1167.97763,651.386456 L1148.14243,686.925856 C1137.67333,680.590096 1127.06603,675.562256 1116.32183,671.842256 C1105.57763,668.123466 1095.65883,666.264076 1086.56793,666.264076 C1076.92551,666.264076 1069.41763,668.329526 1064.04553,672.462866 C1058.67341,676.594986 1055.98735,681.828926 1055.98735,688.165866 L1055.98735,688.992533 C1055.98735,692.849503 1057.36432,696.224053 1060.11947,699.117333 C1062.87462,702.009453 1066.52432,704.626423 1071.07097,706.968243 C1075.61642,709.310063 1080.85036,711.514913 1086.77397,713.580363 C1092.69761,715.647033 1098.82727,717.644603 1105.16427,719.573093 C1113.15336,722.051883 1121.14247,724.945213 1129.13277,728.250673 C1137.12186,731.557343 1144.35337,735.620373 1150.82857,740.442173 C1157.30251,745.263993 1162.60557,751.117373 1166.73887,758.005773 C1170.87099,764.893043 1172.93766,773.295473 1172.93766,783.214273 L1172.93766,784.039728 C1172.93766,795.611828 1170.87099,805.667628 1166.73887,814.208228 C1162.60554,822.748838 1156.88917,829.842128 1149.58857,835.490628 C1142.28796,841.137898 1133.67827,845.408208 1123.76067,848.301528 C1113.84188,851.193648 1103.23587,852.639708 1091.94007,852.639708 L1091.94,852.64 Z" id="_1116517201234" fill="#FFFFFF" fill-rule="nonzero"></path>
                <path d="M1358.48,757.18 C1352.14303,754.7 1344.6364,752.63455 1335.9576,750.98121 C1327.28002,749.32788 1318.1188,748.50121 1308.4764,748.50121 C1292.7734,748.50121 1280.5128,751.53151 1271.697,757.59333 C1262.88124,763.65394 1258.4728,771.91943 1258.4728,782.38853 L1258.4728,783.215197 C1258.4728,793.684297 1262.53704,801.673397 1270.6643,807.183697 C1278.79157,812.692787 1288.7782,815.447937 1300.6243,815.447937 C1308.88975,815.447937 1316.5346,814.346117 1323.5601,812.142487 C1330.58555,809.938847 1336.7153,806.839457 1341.9504,802.844307 C1347.18434,798.849157 1351.24858,794.028547 1354.1407,788.380107 C1357.03403,782.732837 1358.48009,776.464907 1358.48009,769.577707 L1358.48009,757.180107 L1358.48,757.18 Z M1357.24,848.5085 L1357.24,821.6467 C1349.80121,830.46367 1340.297,837.9012 1328.7261,843.9631 C1317.1552,850.02371 1303.1043,853.05401 1286.5746,853.05401 C1276.1055,853.05401 1266.1867,851.60795 1256.8207,848.71462 C1247.45343,845.8225 1239.2571,841.5522 1232.2316,835.90492 C1225.20615,830.25644 1219.5589,823.23102 1215.2886,814.82852 C1211.0183,806.4261 1208.88254,796.71462 1208.88254,785.69402 L1208.88254,784.867353 C1208.88254,772.746153 1211.08739,762.207953 1215.49466,753.254053 C1219.90314,744.300113 1226.03286,736.861353 1233.88496,730.938853 C1241.73587,725.015213 1251.10316,720.606753 1261.98556,717.714653 C1272.86796,714.821323 1284.64616,713.375263 1297.31886,713.375263 C1310.54306,713.375263 1321.76976,714.20193 1330.99886,715.855263 C1340.22795,717.507383 1349.11276,719.712233 1357.65336,722.466173 L1357.65336,718.334053 C1357.65336,703.181353 1353.03881,691.610453 1343.80976,683.621353 C1334.58067,675.631053 1321.28736,671.637153 1303.93096,671.637153 C1291.53336,671.637153 1280.51276,672.875943 1270.87036,675.355943 C1261.22794,677.835943 1251.44736,681.141393 1241.52976,685.273523 L1227.89216,645.188723 C1240.01456,639.678423 1252.41216,635.271143 1265.08486,631.964523 C1277.75756,628.659073 1293.04846,627.005733 1310.95636,627.005733 C1343.46546,627.005733 1367.57216,635.063913 1383.27516,651.180233 C1398.97936,667.297833 1406.83036,689.957233 1406.83036,719.160833 L1406.83036,848.508833 L1357.24006,848.508833 L1357.24,848.5085 Z" id="_11165172012345" fill="#FFFFFF" fill-rule="nonzero"></path>
                <path d="M1567.18,853.47 C1550.9255,853.47 1535.9097,850.50879 1522.1352,844.58515 C1508.3594,838.66151 1496.4443,830.60335 1486.3885,820.41065 C1476.3327,810.21675 1468.4806,798.23245 1462.8333,784.45675 C1457.18603,770.68225 1454.36178,756.08095 1454.36178,740.65195 L1454.36178,739.826495 C1454.36178,724.397395 1457.18602,709.727095 1462.8333,695.814395 C1468.48057,681.901695 1476.3327,669.779195 1486.3885,659.448295 C1496.4443,649.117395 1508.4285,640.920995 1522.3412,634.860395 C1536.2539,628.798575 1551.3376,625.768275 1567.5921,625.768275 C1588.2551,625.768275 1605.4054,629.211915 1619.043,636.099175 C1632.6794,642.987655 1644.5957,652.078575 1654.7885,663.374375 L1623.7946,696.848275 C1616.08066,688.857975 1607.8843,682.314975 1599.2067,677.217975 C1590.52791,672.121005 1579.8528,669.573125 1567.18,669.573125 C1558.08788,669.573125 1549.6855,671.432515 1541.9715,675.152515 C1534.25756,678.871305 1527.6454,683.830095 1522.1351,690.028915 C1516.6248,696.227705 1512.2854,703.597415 1509.1169,712.138015 C1505.94963,720.678625 1504.36538,729.632515 1504.36538,738.999815 L1504.36538,739.826482 C1504.36538,749.468902 1505.94962,758.559782 1509.1169,767.100382 C1512.28538,775.640992 1516.76296,783.079782 1522.5484,789.416782 C1528.33385,795.752542 1535.2211,800.780382 1543.2102,804.500382 C1551.2005,808.219172 1560.0163,810.078562 1569.6587,810.078562 C1581.506,810.078562 1591.906,807.530682 1600.8599,802.433712 C1609.81263,797.336742 1618.2854,790.793712 1626.2744,782.804612 L1656.4417,812.558512 C1645.6975,824.680912 1633.4369,834.529412 1619.6623,842.106412 C1605.8878,849.682172 1588.3932,853.470012 1567.1799,853.470012 L1567.18,853.47 Z" id="_111651720123456" fill="#FFFFFF" fill-rule="nonzero"></path>
                <polygon id="_1116517201234567" fill="#FFFFFF" fill-rule="nonzero" points="1702.31 546.84 1752.31 546.84 1752.31 727.02 1842.82 630.32 1903.56 630.32 1816.78 719.16 1906.46 848.51 1848.6 848.51 1782.89 754.29 1752.31 786.11 1752.31 848.51 1702.31 848.51"></polygon>
            </g>
        </g>
    </g>
</svg>