<?xml version="1.0" encoding="UTF-8"?>
<!DOCTYPE svg PUBLIC "-//W3C//DTD SVG 1.1//EN" "http://www.w3.org/Graphics/SVG/1.1/DTD/svg11.dtd">
<!-- Creator: CorelDRAW -->
<svg xmlns="http://www.w3.org/2000/svg" xml:space="preserve" width="3600px" height="2400px" style="shape-rendering:geometricPrecision; text-rendering:geometricPrecision; image-rendering:optimizeQuality; fill-rule:evenodd; clip-rule:evenodd"
viewBox="0 0 3600 2545.45"
 xmlns:xlink="http://www.w3.org/1999/xlink">
 <defs>
  <style type="text/css">
   <![CDATA[
    .fil10 {fill:#004277}
    .fil9 {fill:#004578}
    .fil6 {fill:#006FB6}
    .fil7 {fill:#008FC1}
    .fil8 {fill:#00A7CC}
    .fil0 {fill:#111B26}
    .fil4 {fill:#B44300}
    .fil5 {fill:#BA4C01}
    .fil1 {fill:#FF5C01}
    .fil2 {fill:#FF9000}
    .fil3 {fill:#FFAF00}
    .fil11 {fill:white;fill-rule:nonzero}
   ]]>
  </style>
 </defs>
 <g id="Layer_x0020_1">
  <metadata id="CorelCorpID_0Corel-Layer"/>
  <rect class="fil0" width="3600" height="2545.45"/>
  <g id="_142935920">
   <g>
    <path id="_142937120" class="fil1" d="M1603.79 1033.12c0,58.8994 0,117.799 0,176.712 0,25.303 15.5067,56.4315 48.7964,31.3479l82.4642 -82.377 -131.261 -125.682z"/>
    <polygon id="_142937360" class="fil2" points="1603.79,1033.12 1821.49,1033.12 1823.55,1247.12 "/>
    <path id="_142935440" class="fil3" d="M1823.55 1247.12c42.4727,0.0727273 85.9976,-0.467879 127.303,0.379394 5.89818,0.0872727 11.1988,0.379394 17.0097,-0.803636 31.1721,-6.58424 37.8012,-32.0048 14.0315,-55.7455l-160.404 -157.833 2.05939 214.002z"/>
    <polygon id="_142936568" class="fil4" points="1821.49,1033.12 1846.22,1247.11 1823.55,1247.12 "/>
    <polygon id="_142937576" class="fil5" points="1603.8,1033.13 1733.96,1159.88 1718.14,1175.65 "/>
    <path id="_142936880" class="fil6" d="M1603.79 1033.12c0,-58.8994 0,-117.798 0,-176.712 0,-25.303 15.5067,-56.4315 48.7964,-31.3479l82.4642 82.377 -131.261 125.682z"/>
    <polygon id="_142936352" class="fil7" points="1603.79,1033.12 1821.49,1033.12 1823.55,819.12 "/>
    <path id="_142935656" class="fil8" d="M1823.55 819.12c42.4727,-0.0727273 85.9976,0.466667 127.303,-0.379394 5.89818,-0.0884848 11.1988,-0.380606 17.0097,0.802424 31.1721,6.58545 37.8012,32.0048 14.0315,55.7455l-160.404 157.833 2.05939 -214.001z"/>
    <polygon id="_142935704" class="fil9" points="1821.49,1033.12 1846.22,819.135 1823.55,819.12 "/>
    <polygon id="_142935608" class="fil10" points="1603.8,1033.12 1733.96,906.367 1718.14,890.592 "/>
   </g>
   <polygon id="_111651720" class="fil11" points="862.95,1361.84 912.954,1361.84 912.954,1542.02 1003.46,1445.32 1064.2,1445.32 977.421,1534.16 1067.1,1663.51 1009.24,1663.51 943.535,1569.29 912.954,1601.11 912.954,1663.51 862.95,1663.51 "/>
   <path id="_1116517201" class="fil11" d="M1103.46 1445.32l50.0036 0 0 33.8873c3.58182,-5.23515 7.50667,-10.1248 11.777,-14.6703 4.2703,-4.54667 9.2303,-8.6097 14.8776,-12.1915 5.64727,-3.58182 11.8461,-6.40485 18.5964,-8.47152 6.7503,-2.06667 14.3952,-3.09939 22.9358,-3.09939 24.7952,0 43.9418,7.57697 57.4412,22.7285 13.5006,15.1527 20.2497,35.5406 20.2497,61.1624l0 138.852 -50.0036 0 0 -123.976c0,-17.0812 -4.06303,-30.2364 -12.1903,-39.4655 -8.12727,-9.22909 -19.6303,-13.8436 -34.5067,-13.8436 -14.6012,0 -26.4485,4.75152 -35.5394,14.257 -9.09212,9.50424 -13.6376,22.7976 -13.6376,39.8788l0 123.149 -50.0036 0 0 -218.198z"/>
   <path id="_11165172012" class="fil11" d="M1494.4 1572.18c-6.33697,-2.48 -13.8436,-4.54545 -22.5224,-6.19879 -8.67758,-1.65333 -17.8388,-2.48 -27.4812,-2.48 -15.703,0 -27.9636,3.0303 -36.7794,9.09212 -8.81576,6.06061 -13.2242,14.3261 -13.2242,24.7952l0 0.826667c0,10.4691 4.06424,18.4582 12.1915,23.9685 8.12727,5.50909 18.1139,8.26424 29.96,8.26424 8.26545,0 15.9103,-1.10182 22.9358,-3.30545 7.02545,-2.20364 13.1552,-5.30303 18.3903,-9.29818 5.23394,-3.99515 9.29818,-8.81576 12.1903,-14.4642 2.89333,-5.64727 4.33939,-11.9152 4.33939,-18.8024l0 -12.3976zm-1.24 91.3285l0 -26.8618c-7.43879,8.81697 -16.943,16.2545 -28.5139,22.3164 -11.5709,6.06061 -25.6218,9.09091 -42.1515,9.09091 -10.4691,0 -20.3879,-1.44606 -29.7539,-4.33939 -9.36727,-2.89212 -17.5636,-7.16242 -24.5891,-12.8097 -7.02545,-5.64848 -12.6727,-12.6739 -16.943,-21.0764 -4.2703,-8.40242 -6.40606,-18.1139 -6.40606,-29.1345l0 -0.826667c0,-12.1212 2.20485,-22.6594 6.61212,-31.6133 4.40848,-8.95394 10.5382,-16.3927 18.3903,-22.3152 7.85091,-5.92364 17.2182,-10.3321 28.1006,-13.2242 10.8824,-2.89333 22.6606,-4.33939 35.3333,-4.33939 13.2242,0 24.4509,0.826667 33.68,2.48 9.22909,1.65212 18.1139,3.85697 26.6545,6.61091l0 -4.13212c0,-15.1527 -4.61455,-26.7236 -13.8436,-34.7127 -9.22909,-7.9903 -22.5224,-11.9842 -39.8788,-11.9842 -12.3976,0 -23.4182,1.23879 -33.0606,3.71879 -9.64242,2.48 -19.423,5.78545 -29.3406,9.91758l-13.6376 -40.0848c12.1224,-5.5103 24.52,-9.91758 37.1927,-13.2242 12.6727,-3.30545 27.9636,-4.95879 45.8715,-4.95879 32.5091,0 56.6158,8.05818 72.3188,24.1745 15.7042,16.1176 23.5552,38.777 23.5552,67.9806l0 129.348 -49.5903 0z"/>
   <path id="_111651720123" class="fil11" d="M1714.66 1624.67c8.54061,0 16.5988,-1.65212 24.1745,-4.95879 7.57697,-3.30545 14.1891,-7.92 19.8364,-13.8436 5.64727,-5.92364 10.1248,-13.2242 13.4303,-21.903 3.30667,-8.67758 4.96,-18.3891 4.96,-29.1333l0 -0.826667c0,-10.4691 -1.65333,-20.0436 -4.96,-28.7212 -3.30545,-8.67879 -7.78303,-16.0485 -13.4303,-22.1091 -5.64727,-6.06061 -12.2594,-10.7442 -19.8364,-14.0509 -7.57576,-3.30545 -15.6339,-4.95879 -24.1745,-4.95879 -8.54061,0 -16.6679,1.65333 -24.3818,4.95879 -7.71394,3.30667 -14.4642,8.05818 -20.2497,14.257 -5.78545,6.19879 -10.4,13.5685 -13.8436,22.1091 -3.44364,8.54061 -5.16606,18.0461 -5.16606,28.5152l0 0.826667c0,10.4691 1.72242,20.0424 5.16606,28.72 3.44364,8.67879 8.05818,16.0485 13.8436,22.1091 5.78545,6.06182 12.5358,10.7455 20.2497,14.0509 7.71394,3.30667 15.8412,4.95879 24.3818,4.95879zm-112.405 -179.352l50.0036 0 0 36.3661c7.98909,-11.5709 17.9079,-21.2824 29.7539,-29.1333 11.8461,-7.85212 26.5855,-11.7782 44.2182,-11.7782 12.9479,0 25.4836,2.48 37.6061,7.43879 12.1212,4.95879 22.9358,12.2594 32.44,21.9018 9.50424,9.64242 17.1503,21.4897 22.9358,35.5406 5.78545,14.0497 8.67758,30.1673 8.67758,48.3503l0 0.826667c0,18.183 -2.82303,34.2994 -8.47152,48.3503 -5.64727,14.0509 -13.2242,25.897 -22.7285,35.5394 -9.50545,9.64242 -20.3867,16.943 -32.6473,21.9018 -12.2594,4.96 -24.8642,7.43879 -37.8121,7.43879 -17.9079,0 -32.7855,-3.85697 -44.6315,-11.5709 -11.8461,-7.71394 -21.6267,-16.6679 -29.3406,-26.8618l0 100.007 -50.0036 0 0 -284.318z"/>
   <path id="_1116517201234" class="fil11" d="M1953.94 1667.64c-15.7042,0 -31.6145,-2.75515 -47.7309,-8.26424 -16.1164,-5.5103 -31.063,-13.6376 -44.8376,-24.3818l22.3152 -33.8873c11.8473,8.81576 23.8994,15.497 36.16,20.0424 12.2594,4.54667 24.0376,6.81939 35.3333,6.81939 10.7442,0 19.0776,-2.13576 25.0012,-6.40606 5.92364,-4.2703 8.88485,-9.98667 8.88485,-17.1491l0 -0.826667c0,-4.13333 -1.30909,-7.71394 -3.92606,-10.7455 -2.61697,-3.0303 -6.19879,-5.64727 -10.7442,-7.85091 -4.54545,-2.20485 -9.78061,-4.2703 -15.703,-6.19879 -5.92364,-1.92848 -12.0533,-3.85697 -18.3903,-5.78545 -7.98909,-2.20485 -16.0485,-4.82182 -24.1758,-7.85212 -8.12727,-3.0303 -15.4279,-6.95636 -21.9018,-11.7782 -6.47394,-4.82061 -11.7782,-10.8133 -15.9103,-17.9758 -4.13212,-7.16364 -6.19879,-15.9794 -6.19879,-26.4485l0 -0.826667c0,-10.1927 1.99758,-19.423 5.99273,-27.6873 3.99394,-8.26545 9.50424,-15.2909 16.5297,-21.0764 7.02545,-5.78545 15.2897,-10.1939 24.7952,-13.2242 9.50424,-3.0303 19.6291,-4.54545 30.3733,-4.54545 13.7758,0 27.6885,2.20364 41.7394,6.61212 14.0497,4.40848 26.8606,10.4691 38.4315,18.183l-19.8352 35.5394c-10.4691,-6.33576 -21.0764,-11.3636 -31.8206,-15.0836 -10.7442,-3.71879 -20.663,-5.57818 -29.7539,-5.57818 -9.64242,0 -17.1503,2.06545 -22.5224,6.19879 -5.37212,4.13212 -8.05818,9.36606 -8.05818,15.703l0 0.826667c0,3.85697 1.37697,7.23152 4.13212,10.1248 2.75515,2.89212 6.40485,5.50909 10.9515,7.85091 4.54545,2.34182 9.77939,4.54667 15.703,6.61212 5.92364,2.06667 12.0533,4.06424 18.3903,5.99273 7.98909,2.47879 15.9782,5.37212 23.9685,8.67758 7.98909,3.30667 15.2206,7.3697 21.6958,12.1915 6.47394,4.82182 11.777,10.6752 15.9103,17.5636 4.13212,6.88727 6.19879,15.2897 6.19879,25.2085l0 0.825455c0,11.5721 -2.06667,21.6279 -6.19879,30.1685 -4.13333,8.54061 -9.8497,15.6339 -17.1503,21.2824 -7.30061,5.64727 -15.9103,9.91758 -25.8279,12.8109 -9.91879,2.89212 -20.5248,4.33818 -31.8206,4.33818z"/>
   <path id="_11165172012345" class="fil11" d="M2220.48 1572.18c-6.33697,-2.48 -13.8436,-4.54545 -22.5224,-6.19879 -8.67758,-1.65333 -17.8388,-2.48 -27.4812,-2.48 -15.703,0 -27.9636,3.0303 -36.7794,9.09212 -8.81576,6.06061 -13.2242,14.3261 -13.2242,24.7952l0 0.826667c0,10.4691 4.06424,18.4582 12.1915,23.9685 8.12727,5.50909 18.1139,8.26424 29.96,8.26424 8.26545,0 15.9103,-1.10182 22.9358,-3.30545 7.02545,-2.20364 13.1552,-5.30303 18.3903,-9.29818 5.23394,-3.99515 9.29818,-8.81576 12.1903,-14.4642 2.89333,-5.64727 4.33939,-11.9152 4.33939,-18.8024l0 -12.3976zm-1.24 91.3285l0 -26.8618c-7.43879,8.81697 -16.943,16.2545 -28.5139,22.3164 -11.5709,6.06061 -25.6218,9.09091 -42.1515,9.09091 -10.4691,0 -20.3879,-1.44606 -29.7539,-4.33939 -9.36727,-2.89212 -17.5636,-7.16242 -24.5891,-12.8097 -7.02545,-5.64848 -12.6727,-12.6739 -16.943,-21.0764 -4.2703,-8.40242 -6.40606,-18.1139 -6.40606,-29.1345l0 -0.826667c0,-12.1212 2.20485,-22.6594 6.61212,-31.6133 4.40848,-8.95394 10.5382,-16.3927 18.3903,-22.3152 7.85091,-5.92364 17.2182,-10.3321 28.1006,-13.2242 10.8824,-2.89333 22.6606,-4.33939 35.3333,-4.33939 13.2242,0 24.4509,0.826667 33.68,2.48 9.22909,1.65212 18.1139,3.85697 26.6545,6.61091l0 -4.13212c0,-15.1527 -4.61455,-26.7236 -13.8436,-34.7127 -9.22909,-7.9903 -22.5224,-11.9842 -39.8788,-11.9842 -12.3976,0 -23.4182,1.23879 -33.0606,3.71879 -9.64242,2.48 -19.423,5.78545 -29.3406,9.91758l-13.6376 -40.0848c12.1224,-5.5103 24.52,-9.91758 37.1927,-13.2242 12.6727,-3.30545 27.9636,-4.95879 45.8715,-4.95879 32.5091,0 56.6158,8.05818 72.3188,24.1745 15.7042,16.1176 23.5552,38.777 23.5552,67.9806l0 129.348 -49.5903 0z"/>
   <path id="_111651720123456" class="fil11" d="M2429.18 1668.47c-16.2545,0 -31.2703,-2.96121 -45.0448,-8.88485 -13.7758,-5.92364 -25.6909,-13.9818 -35.7467,-24.1745 -10.0558,-10.1939 -17.9079,-22.1782 -23.5552,-35.9539 -5.64727,-13.7745 -8.47152,-28.3758 -8.47152,-43.8048l0 -0.825455c0,-15.4291 2.82424,-30.0994 8.47152,-44.0121 5.64727,-13.9127 13.4994,-26.0352 23.5552,-36.3661 10.0558,-10.3309 22.04,-18.5273 35.9527,-24.5879 13.9127,-6.06182 28.9964,-9.09212 45.2509,-9.09212 20.663,0 37.8133,3.44364 51.4509,10.3309 13.6364,6.88848 25.5527,15.9794 35.7455,27.2752l-30.9939 33.4739c-7.71394,-7.9903 -15.9103,-14.5333 -24.5879,-19.6303 -8.67879,-5.09697 -19.3539,-7.64485 -32.0267,-7.64485 -9.09212,0 -17.4945,1.85939 -25.2085,5.57939 -7.71394,3.71879 -14.3261,8.67758 -19.8364,14.8764 -5.5103,6.19879 -9.8497,13.5685 -13.0182,22.1091 -3.16727,8.54061 -4.75152,17.4945 -4.75152,26.8618l0 0.826667c0,9.64242 1.58424,18.7333 4.75152,27.2739 3.16848,8.54061 7.64606,15.9794 13.4315,22.3164 5.78545,6.33576 12.6727,11.3636 20.6618,15.0836 7.9903,3.71879 16.8061,5.57818 26.4485,5.57818 11.8473,0 22.2473,-2.54788 31.2012,-7.64485 8.95273,-5.09697 17.4255,-11.64 25.4145,-19.6291l30.1673 29.7539c-10.7442,12.1224 -23.0048,21.9709 -36.7794,29.5479 -13.7745,7.57576 -31.2691,11.3636 -52.4824,11.3636z"/>
   <polygon id="_1116517201234567" class="fil11" points="2564.31,1361.84 2614.31,1361.84 2614.31,1542.02 2704.82,1445.32 2765.56,1445.32 2678.78,1534.16 2768.46,1663.51 2710.6,1663.51 2644.89,1569.29 2614.31,1601.11 2614.31,1663.51 2564.31,1663.51 "/>
  </g>
 </g>
</svg>
