<?xml version="1.0" encoding="UTF-8"?>
<svg width="2404px" height="436px" viewBox="0 0 2404 436" version="1.1" xmlns="http://www.w3.org/2000/svg" xmlns:xlink="http://www.w3.org/1999/xlink">
    <!-- Generator: Sketch 53.2 (72643) - https://sketchapp.com -->
    <title>knapsack-bg-inline-trans</title>
    <desc>Created with Sketch.</desc>
    <g id="Page-1" stroke="none" stroke-width="1" fill="none" fill-rule="evenodd">
        <g id="knapsack-bg-inline-trans" transform="translate(-598.000000, -1055.000000)">
            <g id="_142935920" transform="translate(598.000000, 1055.000000)">
                <g id="Group">
                    <path d="M0.7896,218.12 C0.79,277.0194 0.79,335.919 0.79,394.832 C0.79,420.135 16.2967,451.2635 49.5864,426.1799 L132.0506,343.8029 L0.7896,218.12 L0.7896,218.12 Z" id="_142937120" fill="#FF5C01"></path>
                    <polygon id="_142937360" fill="#FF9000" points="0.79 218.12 218.49 218.12 220.55 432.12"></polygon>
                    <path d="M220.55,432.12 C263.0227,432.192727 306.5476,431.652121 347.853,432.499394 C353.75118,432.586667 359.0518,432.878788 364.8627,431.695758 C396.0348,425.111518 402.6639,399.690958 378.8942,375.950258 L218.4902,218.117258 L220.54959,432.119258 L220.55,432.12 Z" id="_142935440" fill="#FFAF00"></path>
                    <polygon id="_142936568" fill="#B44300" points="218.49 218.12 243.22 432.11 220.55 432.12"></polygon>
                    <polygon id="_142937576" fill="#BA4C01" points="0.8 218.13 130.96 344.88 115.14 360.65"></polygon>
                    <path d="M0.7896,218.12 C0.79,159.2206 0.79,100.322 0.79,41.408 C0.79,16.105 16.2967,-15.0235 49.5864,10.0601 L132.0506,92.4371 L0.7896,218.12 L0.7896,218.12 Z" id="_142936880" fill="#006FB6"></path>
                    <polygon id="_142936352" fill="#008FC1" points="0.79 218.12 218.49 218.12 220.55 4.12"></polygon>
                    <path d="M220.55,4.12 C263.0227,4.0472727 306.5476,4.586667 347.853,3.740606 C353.75118,3.6521212 359.0518,3.36 364.8627,4.54303 C396.0348,11.12848 402.6639,36.54783 378.8942,60.28853 L218.4902,218.12153 L220.54959,4.12053 L220.55,4.12 Z" id="_142935656" fill="#00A7CC"></path>
                    <polygon id="_142935704" fill="#004578" points="218.49 218.12 243.22 4.135 220.55 4.12"></polygon>
                    <polygon id="_142935608" fill="#004277" points="0.8 218.12 130.96 91.367 115.14 75.592"></polygon>
                </g>
                <polygon id="_111651720" fill="#FFFFFF" fill-rule="nonzero" points="497.95 66.84 547.954 66.84 547.954 247.02 638.46 150.32 699.2 150.32 612.421 239.16 702.1 368.51 644.24 368.51 578.535 274.29 547.954 306.11 547.954 368.51 497.95 368.51"></polygon>
                <path d="M738.46,150.32 L788.4636,150.32 L788.4636,184.2073 C792.04542,178.97215 795.97027,174.0825 800.2406,169.537 C804.5109,164.99033 809.4709,160.9273 815.1182,157.3455 C820.76547,153.76368 826.9643,150.94065 833.7146,148.87398 C840.4649,146.80731 848.1098,145.77459 856.6504,145.77459 C881.4456,145.77459 900.5922,153.35156 914.0916,168.50309 C927.5922,183.65579 934.3413,204.04369 934.3413,229.66549 L934.3413,368.51749 L884.3377,368.51749 L884.3377,244.54149 C884.3377,227.46029 880.27467,214.30509 872.1474,205.07599 C864.02013,195.8469 852.5171,191.23239 837.6407,191.23239 C823.0395,191.23239 811.1922,195.98391 802.1013,205.48939 C793.00918,214.99363 788.4637,228.28699 788.4637,245.36819 L788.4637,368.51719 L738.46,368.51749 L738.4601,150.31919 L738.46,150.32 Z" id="_1116517201" fill="#FFFFFF" fill-rule="nonzero"></path>
                <path d="M1129.4,277.18 C1123.06303,274.7 1115.5564,272.63455 1106.8776,270.98121 C1098.20002,269.32788 1089.0388,268.50121 1079.3964,268.50121 C1063.6934,268.50121 1051.4328,271.53151 1042.617,277.59333 C1033.80124,283.65394 1029.3928,291.91943 1029.3928,302.38853 L1029.3928,303.215197 C1029.3928,313.684297 1033.45704,321.673397 1041.5843,327.183697 C1049.71157,332.692787 1059.6982,335.447937 1071.5443,335.447937 C1079.80975,335.447937 1087.4546,334.346117 1094.4801,332.142487 C1101.50555,329.938847 1107.6353,326.839457 1112.8704,322.844307 C1118.10434,318.849157 1122.16858,314.028547 1125.0607,308.380107 C1127.95403,302.732837 1129.40009,296.464907 1129.40009,289.577707 L1129.40009,277.180107 L1129.4,277.18 Z M1128.16,368.5085 L1128.16,341.6467 C1120.72121,350.46367 1111.217,357.9012 1099.6461,363.9631 C1088.0752,370.02371 1074.0243,373.05401 1057.4946,373.05401 C1047.0255,373.05401 1037.1067,371.60795 1027.7407,368.71462 C1018.37343,365.8225 1010.1771,361.5522 1003.1516,355.90492 C996.12615,350.25644 990.4789,343.23102 986.2086,334.82852 C981.9383,326.4261 979.80254,316.71462 979.80254,305.69402 L979.80254,304.867353 C979.80254,292.746153 982.00739,282.207953 986.41466,273.254053 C990.82314,264.300113 996.95286,256.861353 1004.80496,250.938853 C1012.65587,245.015213 1022.02316,240.606753 1032.90556,237.714653 C1043.78796,234.821323 1055.56616,233.375263 1068.23886,233.375263 C1081.46306,233.375263 1092.68976,234.20193 1101.91886,235.855263 C1111.14795,237.507383 1120.03276,239.712233 1128.57336,242.466173 L1128.57336,238.334053 C1128.57336,223.181353 1123.95881,211.610453 1114.72976,203.621353 C1105.50067,195.631053 1092.20736,191.637153 1074.85096,191.637153 C1062.45336,191.637153 1051.43276,192.875943 1041.79036,195.355943 C1032.14794,197.835943 1022.36736,201.141393 1012.44976,205.273523 L998.81216,165.188723 C1010.93456,159.678423 1023.33216,155.271143 1036.00486,151.964523 C1048.67756,148.659073 1063.96846,147.005733 1081.87636,147.005733 C1114.38546,147.005733 1138.49216,155.063913 1154.19516,171.180233 C1169.89936,187.297833 1177.75036,209.957233 1177.75036,239.160833 L1177.75036,368.508833 L1128.16006,368.508833 L1128.16,368.5085 Z" id="_11165172012" fill="#FFFFFF" fill-rule="nonzero"></path>
                <path d="M1349.66,329.67 C1358.20061,329.67 1366.2588,328.01788 1373.8345,324.71121 C1381.41147,321.40576 1388.0236,316.79121 1393.6709,310.86761 C1399.31817,304.94397 1403.7957,297.64341 1407.1012,288.96461 C1410.40787,280.28703 1412.0612,270.57551 1412.0612,259.83131 L1412.0612,259.004643 C1412.0612,248.535543 1410.40787,238.961043 1407.1012,230.283443 C1403.79575,221.604653 1399.31817,214.234943 1393.6709,208.174343 C1388.02363,202.113733 1381.4115,197.430143 1373.8345,194.123443 C1366.25874,190.817993 1358.2006,189.164653 1349.66,189.164653 C1341.11939,189.164653 1332.9921,190.817983 1325.2782,194.123443 C1317.56426,197.430113 1310.814,202.181623 1305.0285,208.380443 C1299.24305,214.579233 1294.6285,221.948943 1291.1849,230.489543 C1287.74126,239.030153 1286.01884,248.535643 1286.01884,259.004743 L1286.01884,259.83141 C1286.01884,270.30051 1287.74126,279.87381 1291.1849,288.55141 C1294.62854,297.2302 1299.24308,304.59991 1305.0285,310.66051 C1310.81395,316.72233 1317.5643,321.40601 1325.2782,324.71141 C1332.99214,328.01808 1341.1194,329.6702 1349.66,329.6702 L1349.66,329.67 Z M1237.255,150.318 L1287.2586,150.318 L1287.2586,186.6841 C1295.24769,175.1132 1305.1665,165.4017 1317.0125,157.5508 C1328.8586,149.69868 1343.598,145.7726 1361.2307,145.7726 C1374.1786,145.7726 1386.7143,148.2526 1398.8368,153.21139 C1410.958,158.17018 1421.7726,165.47079 1431.2768,175.11319 C1440.78104,184.75561 1448.4271,196.60289 1454.2126,210.65379 C1459.99805,224.70349 1462.89018,240.82109 1462.89018,259.00409 L1462.89018,259.830757 C1462.89018,278.013757 1460.06715,294.130157 1454.41866,308.181057 C1448.77139,322.231957 1441.19446,334.078057 1431.69016,343.720457 C1422.18471,353.362877 1411.30346,360.663457 1399.04286,365.622257 C1386.78346,370.582257 1374.17866,373.061047 1361.23076,373.061047 C1343.32286,373.061047 1328.44526,369.204077 1316.59926,361.490147 C1304.75316,353.776207 1294.97256,344.822247 1287.25866,334.628347 L1287.25866,434.635347 L1237.255,434.635347 L1237.25506,150.317347 L1237.255,150.318 Z" id="_111651720123" fill="#FFFFFF" fill-rule="nonzero"></path>
                <path d="M1588.94,372.64 C1573.2358,372.64 1557.3255,369.88485 1541.2091,364.37576 C1525.0927,358.86546 1510.1461,350.73816 1496.3715,339.99396 L1518.6867,306.10666 C1530.534,314.92242 1542.5861,321.60366 1554.8467,326.14906 C1567.1061,330.69573 1578.8843,332.96845 1590.18,332.96845 C1600.9242,332.96845 1609.2576,330.83269 1615.1812,326.56239 C1621.10484,322.29209 1624.06605,316.57572 1624.06605,309.41329 L1624.06605,308.586623 C1624.06605,304.453293 1622.75696,300.872683 1620.13999,297.841123 C1617.52302,294.810823 1613.9412,292.193853 1609.39579,289.990213 C1604.85034,287.785363 1599.61518,285.719913 1593.69279,283.791423 C1587.76915,281.862943 1581.63949,279.934453 1575.30249,278.005973 C1567.3134,275.801123 1559.25399,273.184153 1551.12669,270.153853 C1542.99942,267.123553 1535.69879,263.197493 1529.22489,258.375653 C1522.75095,253.555043 1517.44669,247.562353 1513.31459,240.399853 C1509.18247,233.236213 1507.1158,224.420453 1507.1158,213.951353 L1507.1158,213.124686 C1507.1158,202.931986 1509.11338,193.701686 1513.10853,185.437386 C1517.10247,177.171936 1522.61277,170.146486 1529.63823,164.360986 C1536.66368,158.575536 1544.92793,154.167086 1554.43343,151.136786 C1563.93767,148.106486 1574.06253,146.591336 1584.80673,146.591336 C1598.58253,146.591336 1612.49523,148.794976 1626.54613,153.203456 C1640.59583,157.611936 1653.40673,163.672556 1664.97763,171.386456 L1645.14243,206.925856 C1634.67333,200.590096 1624.06603,195.562256 1613.32183,191.842256 C1602.57763,188.123466 1592.65883,186.264076 1583.56793,186.264076 C1573.92551,186.264076 1566.41763,188.329526 1561.04553,192.462866 C1555.67341,196.594986 1552.98735,201.828926 1552.98735,208.165866 L1552.98735,208.992533 C1552.98735,212.849503 1554.36432,216.224053 1557.11947,219.117333 C1559.87462,222.009453 1563.52432,224.626423 1568.07097,226.968243 C1572.61642,229.310063 1577.85036,231.514913 1583.77397,233.580363 C1589.69761,235.647033 1595.82727,237.644603 1602.16427,239.573093 C1610.15336,242.051883 1618.14247,244.945213 1626.13277,248.250673 C1634.12186,251.557343 1641.35337,255.620373 1647.82857,260.442173 C1654.30251,265.263993 1659.60557,271.117373 1663.73887,278.005773 C1667.87099,284.893043 1669.93766,293.295473 1669.93766,303.214273 L1669.93766,304.039728 C1669.93766,315.611828 1667.87099,325.667628 1663.73887,334.208228 C1659.60554,342.748838 1653.88917,349.842128 1646.58857,355.490628 C1639.28796,361.137898 1630.67827,365.408208 1620.76067,368.301528 C1610.84188,371.193648 1600.23587,372.639708 1588.94007,372.639708 L1588.94,372.64 Z" id="_1116517201234" fill="#FFFFFF" fill-rule="nonzero"></path>
                <path d="M1855.48,277.18 C1849.14303,274.7 1841.6364,272.63455 1832.9576,270.98121 C1824.28002,269.32788 1815.1188,268.50121 1805.4764,268.50121 C1789.7734,268.50121 1777.5128,271.53151 1768.697,277.59333 C1759.88124,283.65394 1755.4728,291.91943 1755.4728,302.38853 L1755.4728,303.215197 C1755.4728,313.684297 1759.53704,321.673397 1767.6643,327.183697 C1775.79157,332.692787 1785.7782,335.447937 1797.6243,335.447937 C1805.88975,335.447937 1813.5346,334.346117 1820.5601,332.142487 C1827.58555,329.938847 1833.7153,326.839457 1838.9504,322.844307 C1844.18434,318.849157 1848.24858,314.028547 1851.1407,308.380107 C1854.03403,302.732837 1855.48009,296.464907 1855.48009,289.577707 L1855.48009,277.180107 L1855.48,277.18 Z M1854.24,368.5085 L1854.24,341.6467 C1846.80121,350.46367 1837.297,357.9012 1825.7261,363.9631 C1814.1552,370.02371 1800.1043,373.05401 1783.5746,373.05401 C1773.1055,373.05401 1763.1867,371.60795 1753.8207,368.71462 C1744.45343,365.8225 1736.2571,361.5522 1729.2316,355.90492 C1722.20615,350.25644 1716.5589,343.23102 1712.2886,334.82852 C1708.0183,326.4261 1705.88254,316.71462 1705.88254,305.69402 L1705.88254,304.867353 C1705.88254,292.746153 1708.08739,282.207953 1712.49466,273.254053 C1716.90314,264.300113 1723.03286,256.861353 1730.88496,250.938853 C1738.73587,245.015213 1748.10316,240.606753 1758.98556,237.714653 C1769.86796,234.821323 1781.64616,233.375263 1794.31886,233.375263 C1807.54306,233.375263 1818.76976,234.20193 1827.99886,235.855263 C1837.22795,237.507383 1846.11276,239.712233 1854.65336,242.466173 L1854.65336,238.334053 C1854.65336,223.181353 1850.03881,211.610453 1840.80976,203.621353 C1831.58067,195.631053 1818.28736,191.637153 1800.93096,191.637153 C1788.53336,191.637153 1777.51276,192.875943 1767.87036,195.355943 C1758.22794,197.835943 1748.44736,201.141393 1738.52976,205.273523 L1724.89216,165.188723 C1737.01456,159.678423 1749.41216,155.271143 1762.08486,151.964523 C1774.75756,148.659073 1790.04846,147.005733 1807.95636,147.005733 C1840.46546,147.005733 1864.57216,155.063913 1880.27516,171.180233 C1895.97936,187.297833 1903.83036,209.957233 1903.83036,239.160833 L1903.83036,368.508833 L1854.24006,368.508833 L1854.24,368.5085 Z" id="_11165172012345" fill="#FFFFFF" fill-rule="nonzero"></path>
                <path d="M2064.18,373.47 C2047.9255,373.47 2032.9097,370.50879 2019.1352,364.58515 C2005.3594,358.66151 1993.4443,350.60335 1983.3885,340.41065 C1973.3327,330.21675 1965.4806,318.23245 1959.8333,304.45675 C1954.18603,290.68225 1951.36178,276.08095 1951.36178,260.65195 L1951.36178,259.826495 C1951.36178,244.397395 1954.18602,229.727095 1959.8333,215.814395 C1965.48057,201.901695 1973.3327,189.779195 1983.3885,179.448295 C1993.4443,169.117395 2005.4285,160.920995 2019.3412,154.860395 C2033.2539,148.798575 2048.3376,145.768275 2064.5921,145.768275 C2085.2551,145.768275 2102.4054,149.211915 2116.043,156.099175 C2129.6794,162.987655 2141.5957,172.078575 2151.7885,183.374375 L2120.7946,216.848275 C2113.08066,208.857975 2104.8843,202.314975 2096.2067,197.217975 C2087.52791,192.121005 2076.8528,189.573125 2064.18,189.573125 C2055.08788,189.573125 2046.6855,191.432515 2038.9715,195.152515 C2031.25756,198.871305 2024.6454,203.830095 2019.1351,210.028915 C2013.6248,216.227705 2009.2854,223.597415 2006.1169,232.138015 C2002.94963,240.678625 2001.36538,249.632515 2001.36538,258.999815 L2001.36538,259.826482 C2001.36538,269.468902 2002.94962,278.559782 2006.1169,287.100382 C2009.28538,295.640992 2013.76296,303.079782 2019.5484,309.416782 C2025.33385,315.752542 2032.2211,320.780382 2040.2102,324.500382 C2048.2005,328.219172 2057.0163,330.078562 2066.6587,330.078562 C2078.506,330.078562 2088.906,327.530682 2097.8599,322.433712 C2106.81263,317.336742 2115.2854,310.793712 2123.2744,302.804612 L2153.4417,332.558512 C2142.6975,344.680912 2130.4369,354.529412 2116.6623,362.106412 C2102.8878,369.682172 2085.3932,373.470012 2064.1799,373.470012 L2064.18,373.47 Z" id="_111651720123456" fill="#FFFFFF" fill-rule="nonzero"></path>
                <polygon id="_1116517201234567" fill="#FFFFFF" fill-rule="nonzero" points="2199.31 66.84 2249.31 66.84 2249.31 247.02 2339.82 150.32 2400.56 150.32 2313.78 239.16 2403.46 368.51 2345.6 368.51 2279.89 274.29 2249.31 306.11 2249.31 368.51 2199.31 368.51"></polygon>
            </g>
        </g>
    </g>
</svg>