<?xml version="1.0" encoding="UTF-8"?>
<svg width="798px" height="888px" viewBox="0 0 798 888" version="1.1" xmlns="http://www.w3.org/2000/svg" xmlns:xlink="http://www.w3.org/1999/xlink">
    <!-- Generator: Sketch 53.2 (72643) - https://sketchapp.com -->
    <title>Slice</title>
    <desc>Created with Sketch.</desc>
    <g id="Page-1" stroke="none" stroke-width="1" fill="none" fill-rule="evenodd">
        <g id="knapsack-logo" transform="translate(-1400.000000, -828.000000)">
            <rect id="Rectangle" x="0.21131" y="0.21131" width="3597.58" height="2543.74"></rect>
            <g id="_111648720" transform="translate(1407.000000, 838.000000)">
                <path d="M0.38,434.0796 C0.38,551.64 0.38,669.199 0.38,786.788 C0.38,837.291 31.3289,899.422 97.7738,849.3556 L262.3688,684.9366 L0.38,434.0796 L0.38,434.0796 Z" id="_111647280" fill="#FF5C01"></path>
                <polygon id="_111652632" fill="#FF9000" points="0.38 434.08 434.89 434.08 439 861.22"></polygon>
                <path d="M439,861.22 C523.7744,861.365357 610.648,860.287295 693.091,861.978277 C704.8649,862.152705 715.4432,862.735343 727.0415,860.374507 C789.2602,847.231807 802.4901,796.495107 755.0469,749.110507 L434.8919,434.083507 L439.00065,861.220507 L439,861.22 Z" id="_111650640" fill="#FFAF00"></path>
                <polygon id="_111650784" fill="#B44300" points="434.89 434.08 484.26 861.19 439 861.22"></polygon>
                <polygon id="_111648672" fill="#BA4C01" points="0.41 434.09 260.2 687.08 228.63 718.56"></polygon>
                <path d="M0.38,434.08 C0.38,316.52 0.38,198.962 0.38,81.373 C0.38,30.8688 31.3289,-31.261 97.7738,18.8042 L262.3688,183.2242 L0.38,434.08 L0.38,434.08 Z" id="_111649800" fill="#006FB6"></path>
                <polygon id="_111646752" fill="#008FC1" points="0.38 434.08 434.89 434.08 439 6.945"></polygon>
                <path d="M439,6.945 C523.7744,6.799643 610.648,7.877705 693.091,6.187934 C704.8649,6.013506 715.4432,5.429657 727.0415,7.790494 C789.2602,20.933194 802.4901,71.669894 755.0469,119.054494 L434.8919,434.081494 L439.00065,6.944494 L439,6.945 Z" id="_111649080" fill="#00A7CC"></path>
                <polygon id="_111646848" fill="#004578" points="434.89 434.08 484.26 6.975 439 6.945"></polygon>
                <polygon id="_111649560" fill="#004277" points="0.41 434.07 260.2 181.09 228.63 149.6"></polygon>
            </g>
        </g>
    </g>
</svg>