<?xml version="1.0" encoding="UTF-8"?>
<svg width="2351px" height="729px" viewBox="0 0 2351 729" version="1.1" xmlns="http://www.w3.org/2000/svg" xmlns:xlink="http://www.w3.org/1999/xlink">
    <!-- Generator: Sketch 51.3 (57544) - http://www.bohemiancoding.com/sketch -->
    <title>bedrock 1</title>
    <desc>Created with Sketch.</desc>
    <defs></defs>
    <g id="Page-1" stroke="none" stroke-width="1" fill="none" fill-rule="evenodd">
        <g id="bedrock-1" transform="translate(0.000000, -22.000000)">
            <path d="M161,129 L161,583 L161,661 L316,751 L474,660 L632,569 L632,413 L564,452 L564,529 L316,672 L229,622 L229,151 L316,100 L564,243 L564,332 L265,505 L265,583 L564,411 L632,371 L632,293 L632,204 L474,113 L316,22 L161,112 L161,129 Z M265,280 L424,371 L492,332 L265,201 L265,280 Z M125,211 L106,222 L68,243 L68,529 L125,562 L125,640 L0,569 L0,386 L0,204 L125,132 L125,211 Z" id="Shape" fill="#F3990D"></path>
            <path d="M884,320 C859,320 838,328 824,344 L824,247 L766,247 L766,523 L821,523 L821,500 C835,517 857,526 884,526 C940,526 983,486 983,423 C983,360 940,320 884,320 Z M874,478 C845,478 823,457 823,423 C823,388 845,367 874,367 C903,367 925,388 925,423 C925,457 903,478 874,478 Z M1123,479 C1097,479 1078,469 1069,450 L1217,421 C1217,357 1170,320 1114,320 C1052,320 1007,363 1007,423 C1007,482 1052,526 1121,526 C1157,526 1185,515 1204,493 L1173,460 C1159,473 1144,479 1123,479 Z M1114,364 C1138,364 1156,378 1161,398 L1064,417 C1065,383 1085,364 1114,364 Z M1402,247 L1402,344 C1387,328 1367,320 1342,320 C1286,320 1242,360 1242,423 C1242,486 1286,526 1342,526 C1369,526 1390,517 1404,500 L1404,523 L1460,523 L1460,247 L1402,247 Z M1352,478 C1323,478 1301,457 1301,423 C1301,388 1323,367 1352,367 C1381,367 1403,388 1403,423 C1403,457 1381,478 1352,478 Z M1569,349 L1569,323 L1513,323 L1513,523 L1571,523 L1571,428 C1571,390 1592,373 1624,373 C1629,373 1633,373 1637,373 L1637,320 C1607,320 1583,330 1569,349 Z M1765,526 C1829,526 1875,483 1875,423 C1875,363 1829,320 1765,320 C1702,320 1655,363 1655,423 C1655,483 1702,526 1765,526 Z M1765,478 C1736,478 1714,457 1714,423 C1714,388 1736,367 1765,367 C1794,367 1816,388 1816,423 C1816,457 1794,478 1765,478 Z M2010,526 C2052,526 2085,507 2099,475 L2055,451 C2044,470 2028,478 2010,478 C1980,478 1957,458 1957,423 C1957,388 1980,367 2010,367 C2028,367 2044,376 2055,395 L2099,371 C2085,338 2052,320 2010,320 C1945,320 1899,363 1899,423 C1899,483 1945,526 2010,526 Z M2280,523 L2351,523 L2260,408 L2343,323 L2274,323 L2189,403 L2189,247 L2131,247 L2131,523 L2189,523 L2189,472 L2217,444 L2280,523 Z" id="Shape" fill="#FFFFFF" fill-rule="nonzero"></path>
            <text id="built-on" font-family="HelveticaNeue-Light, Helvetica Neue" font-size="200" font-weight="300" fill="#E3E3E3">
                <tspan x="754" y="193">built on</tspan>
            </text>
        </g>
    </g>
</svg>