<?xml version="1.0" encoding="UTF-8"?>
<svg width="632px" height="729px" viewBox="0 0 632 729" version="1.1" xmlns="http://www.w3.org/2000/svg" xmlns:xlink="http://www.w3.org/1999/xlink">
    <!-- Generator: Sketch 51.3 (57544) - http://www.bohemiancoding.com/sketch -->
    <title>Shape</title>
    <desc>Created with Sketch.</desc>
    <defs></defs>
    <g id="Page-1" stroke="none" stroke-width="1" fill="none" fill-rule="evenodd">
        <g id="bedrock-1" fill="#F3990D">
            <g id="_506333448">
                <g id="Group">
                    <path d="M161,107 L161,561 L161,639 L316,729 L474,638 L632,547 L632,391 L564,430 L564,507 L316,650 L229,600 L229,129 L316,78 L564,221 L564,310 L265,483 L265,561 L564,389 L632,349 L632,271 L632,182 L474,91 L316,0 L161,90 L161,107 Z M265,258 L424,349 L492,310 L265,179 L265,258 Z M125,189 L106,200 L68,221 L68,507 L125,540 L125,618 L0,547 L0,364 L0,182 L125,110 L125,189 Z" id="Shape"></path>
                </g>
            </g>
        </g>
    </g>
</svg>