<?xml version="1.0" encoding="UTF-8"?>
<svg width="2806px" height="309px" viewBox="0 0 2806 309" version="1.1" xmlns="http://www.w3.org/2000/svg" xmlns:xlink="http://www.w3.org/1999/xlink">
    <!-- Generator: Sketch 51.3 (57544) - http://www.bohemiancoding.com/sketch -->
    <title>BASALT_master_white-color</title>
    <desc>Created with Sketch.</desc>
    <defs></defs>
    <g id="Page-1" stroke="none" stroke-width="1" fill="none" fill-rule="evenodd">
        <g id="BASALT_master_white-color" transform="translate(-11.000000, -82.000000)">
            <text id="created-by" font-family="HelveticaNeue-Light, Helvetica Neue" font-size="337" font-weight="300" fill="#F3990D">
                <tspan x="0" y="326">created by</tspan>
            </text>
            <path d="M1671,330.943965 L1671,91 L1735.59691,91 C1774.55613,91 1796.42357,114.983189 1796.42357,148.576465 C1797.08408,166.221628 1787.85676,182.756704 1772.51741,191.415597 C1802.23255,202.062339 1821,226.045529 1821,257.649545 C1821,298.779594 1793.65872,331 1731.12847,331 L1671,330.943965 Z M1727.38615,181.161102 C1750.28691,181.161102 1760.89946,167.15223 1760.89946,148.604483 C1760.89946,133.867149 1752.35357,119.466028 1732.18972,119.466028 L1707.2223,119.466028 L1707.2223,181.105067 L1727.38615,181.161102 Z M1740.03742,300.124445 C1769.41743,300.124445 1784.47049,279.559421 1784.47049,257.285314 C1784.67573,245.550869 1780.0732,234.245797 1771.73796,226.010806 C1763.40273,217.775816 1752.0648,213.332126 1740.37256,213.717721 L1707.2223,213.717721 L1707.2223,300.096428 L1740.03742,300.124445 Z" id="Shape" fill="#FFFFFF" fill-rule="nonzero"></path>
            <path d="M2085,286.261432 L2116.10736,268.436401 C2123.96106,289.708726 2140.0318,301.704187 2158.50617,301.704187 C2180.86546,301.704187 2193.38666,286.261432 2193.38666,265.269375 C2193.38666,222.41643 2101.15459,203.610462 2101.15459,143.549075 C2101.15459,110.61761 2128.18138,88 2158.25463,88 C2180.13878,88 2198.61315,97.9495064 2209.54125,115.438216 L2183.12934,137.018836 C2177.31592,128.10632 2169.46222,120.903438 2159.2049,120.903438 C2146.54395,120.903438 2137.32074,130.852945 2137.32074,143.885397 C2137.32074,177.825825 2230,199.434472 2230,264.933053 C2230,305.0674 2198.89264,335 2158.19873,335 C2127.3988,334.971973 2097.32556,319.192897 2085,286.261432 Z" id="Shape" fill="#FFFFFF" fill-rule="nonzero"></path>
            <path d="M1988.29206,263.538893 L1912.0447,263.538893 L1892.14798,330 L1853,330 L1930.59439,90 L1969.40561,90 L2047,330 L2008.30103,330 L1988.29206,263.538893 Z M1922.00709,230.602663 L1978.32967,230.602663 L1956.69304,157.89068 C1953.91908,149.246565 1951.73452,140.42469 1950.15435,131.485634 C1948.58677,140.644778 1946.44984,149.69756 1943.75597,158.591451 L1922.00709,230.602663 Z" id="Shape" fill="#FFFFFF" fill-rule="nonzero"></path>
            <polygon id="Shape" fill="#FFFFFF" fill-rule="nonzero" points="2543 331 2543 91 2579.54272 91 2579.54272 296.726296 2670 296.726296 2670 331"></polygon>
            <polygon id="Shape" fill="#FFFFFF" fill-rule="nonzero" points="2730.26498 331 2730.26498 124.937412 2680 124.937412 2680 91 2817 91 2817 124.937412 2766.73502 124.937412 2766.73502 331"></polygon>
            <path d="M2488.18561,304.571429 C2490.11102,307.522156 2491.0903,310.986725 2490.99345,314.505155 C2490.99345,322.5081 2486.27628,329 2480.46406,329 L2276.5028,329 C2272.13659,328.612352 2268.46812,325.569465 2267.2931,321.360825 C2265.44174,316.571173 2265.58322,311.243532 2267.68619,306.558174 L2369.58259,88.2960236 C2373.48548,79.9013255 2383.4533,79.9013255 2387.32812,88.2960236 L2488.18561,304.571429 Z M2460.97768,299.982327 L2410.88587,192.810015 L2384.63259,248.774669 L2408.61152,300.066274 L2460.97768,299.982327 Z M2398.33484,165.974963 L2378.34304,123.189985 L2295.82072,299.954345 L2335.49545,299.954345 L2398.33484,165.974963 Z" id="Shape" fill="#FFFFFF" fill-rule="nonzero"></path>
        </g>
    </g>
</svg>