<svg height="729" viewBox="0 0 2351 729" width="2351" xmlns="http://www.w3.org/2000/svg"><g fill="none" fill-rule="evenodd"><path d="m161 107v454 78l155 90 158-91 158-91v-156l-68 39v77l-248 143-87-50v-471l87-51 248 143v89l-299 173v78l299-172 68-40v-78-89l-158-91-158-91-155 90zm104 151 159 91 68-39-227-131zm-140-69-19 11-38 21v286l57 33v78l-125-71v-183-182l125-72z" fill="#f3990d"/><path d="m884 298c-25 0-46 8-60 24v-97h-58v276h55v-23c14 17 36 26 63 26 56 0 99-40 99-103s-43-103-99-103zm-10 158c-29 0-51-21-51-55 0-35 22-56 51-56s51 21 51 56c0 34-22 55-51 55zm249 1c-26 0-45-10-54-29l148-29c0-64-47-101-103-101-62 0-107 43-107 103 0 59 45 103 114 103 36 0 64-11 83-33l-31-33c-14 13-29 19-50 19zm-9-115c24 0 42 14 47 34l-97 19c1-34 21-53 50-53zm288-117v97c-15-16-35-24-60-24-56 0-100 40-100 103s44 103 100 103c27 0 48-9 62-26v23h56v-276zm-50 231c-29 0-51-21-51-55 0-35 22-56 51-56s51 21 51 56c0 34-22 55-51 55zm217-129v-26h-56v200h58v-95c0-38 21-55 53-55h13v-53c-30 0-54 10-68 29zm196 177c64 0 110-43 110-103s-46-103-110-103c-63 0-110 43-110 103s47 103 110 103zm0-48c-29 0-51-21-51-55 0-35 22-56 51-56s51 21 51 56c0 34-22 55-51 55zm245 48c42 0 75-19 89-51l-44-24c-11 19-27 27-45 27-30 0-53-20-53-55s23-56 53-56c18 0 34 9 45 28l44-24c-14-33-47-51-89-51-65 0-111 43-111 103s46 103 111 103zm270-3h71l-91-115 83-85h-69l-85 80v-156h-58v276h58v-51l28-28z" fill="#4d4d4d" fill-rule="nonzero"/></g></svg>