<?xml version="1.0" encoding="UTF-8"?>
<svg width="208px" height="208px" viewBox="0 0 208 208" version="1.1" xmlns="http://www.w3.org/2000/svg" xmlns:xlink="http://www.w3.org/1999/xlink">
    <!-- Generator: Sketch 61.2 (89653) - https://sketch.com -->
    <title>Slice</title>
    <desc>Created with Sketch.</desc>
    <defs>
        <radialGradient cx="50%" cy="50.0599517%" fx="50%" fy="50.0599517%" r="231.737463%" gradientTransform="translate(0.500000,0.500600),scale(0.206519,1.000000),translate(-0.500000,-0.500600)" id="radialGradient-1">
            <stop stop-color="#323232" stop-opacity="0.92" offset="0%"></stop>
            <stop stop-color="#272727" stop-opacity="0.644" offset="23.6%"></stop>
            <stop stop-color="#0B0B0B" stop-opacity="0.167" offset="64.3%"></stop>
            <stop stop-color="#000000" stop-opacity="0" offset="78.5%"></stop>
        </radialGradient>
        <linearGradient x1="50%" y1="80.8684932%" x2="50%" y2="-3.92712329%" id="linearGradient-2">
            <stop stop-color="#3D6A06" offset="0%"></stop>
            <stop stop-color="#588710" offset="16%"></stop>
            <stop stop-color="#6D9D18" offset="33%"></stop>
            <stop stop-color="#7BAE1E" offset="51.3%"></stop>
            <stop stop-color="#84B721" offset="72.1%"></stop>
            <stop stop-color="#87BA22" offset="100%"></stop>
        </linearGradient>
        <linearGradient x1="50.002958%" y1="100%" x2="50.002958%" y2="-3.89338485e-15%" id="linearGradient-3">
            <stop stop-color="#BBE882" offset="0%"></stop>
            <stop stop-color="#BEE988" stop-opacity="0.918" offset="14.5%"></stop>
            <stop stop-color="#C8EC9A" stop-opacity="0.804" offset="34.4%"></stop>
            <stop stop-color="#D8F2B7" stop-opacity="0.672" offset="57.6%"></stop>
            <stop stop-color="#EEF9E0" stop-opacity="0.527" offset="83%"></stop>
            <stop stop-color="#FFFFFF" stop-opacity="0.43" offset="100%"></stop>
        </linearGradient>
        <linearGradient x1="49.9976434%" y1="96.3142101%" x2="49.9976434%" y2="6.05423575%" id="linearGradient-4">
            <stop stop-color="#48790B" offset="0%"></stop>
            <stop stop-color="#FFFFFF" stop-opacity="0.43" offset="82.2%"></stop>
        </linearGradient>
        <linearGradient x1="49.9993668%" y1="96.3762846%" x2="49.9993668%" y2="37.7243742%" id="linearGradient-5">
            <stop stop-color="#5E7814" offset="0%"></stop>
            <stop stop-color="#8AA21F" offset="50.9%"></stop>
            <stop stop-color="#B1C628" offset="100%"></stop>
        </linearGradient>
        <linearGradient x1="49.7572575%" y1="86.1856496%" x2="50.0682095%" y2="37.6497087%" id="linearGradient-6">
            <stop stop-color="#82AF10" offset="0%"></stop>
            <stop stop-color="#FFFFFF" stop-opacity="0" offset="82.2%"></stop>
        </linearGradient>
        <linearGradient x1="49.9981133%" y1="91.9076328%" x2="49.9981133%" y2="11.8602909%" id="linearGradient-7">
            <stop stop-color="#5E7814" offset="0%"></stop>
            <stop stop-color="#758E1A" offset="14.2%"></stop>
            <stop stop-color="#8FA620" offset="34.5%"></stop>
            <stop stop-color="#A2B824" offset="55.3%"></stop>
            <stop stop-color="#ADC327" offset="76.8%"></stop>
            <stop stop-color="#B1C628" offset="100%"></stop>
        </linearGradient>
        <linearGradient x1="49.9928051%" y1="97.8134407%" x2="49.9928051%" y2="-2.18713283%" id="linearGradient-8">
            <stop stop-color="#FFFFFF" offset="0%"></stop>
            <stop stop-color="#FFFFFF" stop-opacity="0" offset="100%"></stop>
        </linearGradient>
        <radialGradient cx="49.8935226%" cy="50.1679298%" fx="49.8935226%" fy="50.1679298%" r="50.0240157%" gradientTransform="translate(0.498935,0.501679),scale(0.920429,1.000000),translate(-0.498935,-0.501679)" id="radialGradient-9">
            <stop stop-color="#323232" offset="0%"></stop>
            <stop stop-color="#252525" stop-opacity="0.671" offset="29.3%"></stop>
            <stop stop-color="#040404" stop-opacity="0.07" offset="82.8%"></stop>
            <stop stop-color="#000000" stop-opacity="0" offset="89%"></stop>
        </radialGradient>
        <radialGradient cx="49.9084403%" cy="50.1679298%" fx="49.9084403%" fy="50.1679298%" r="50.0240157%" gradientTransform="translate(0.499084,0.501679),scale(0.920429,1.000000),translate(-0.499084,-0.501679)" id="radialGradient-10">
            <stop stop-color="#323232" offset="0%"></stop>
            <stop stop-color="#252525" stop-opacity="0.671" offset="29.3%"></stop>
            <stop stop-color="#040404" stop-opacity="0.07" offset="82.8%"></stop>
            <stop stop-color="#000000" stop-opacity="0" offset="89%"></stop>
        </radialGradient>
    </defs>
    <g id="Page-1" stroke="none" stroke-width="1" fill="none" fill-rule="evenodd">
        <g id="twig-logo" transform="translate(69.000000, 0.000000)" fill-rule="nonzero">
            <ellipse id="Oval" fill="url(#radialGradient-1)" cx="36.016" cy="199.12" rx="34.084" ry="7.039"></ellipse>
            <path d="M23.974,183.34 L46.724,183.34 C45.334,153.78 36.732,59.466 22.224,0.84 C24.849,41.09 27.724,174.84 23.974,183.34 L23.974,183.34 Z" id="Path" fill="url(#linearGradient-2)"></path>
            <path d="M23.974,183.597 L33.258,183.597 C34.398,116.863 22.224,1.097 22.224,1.097 C24.849,41.347 27.724,175.097 23.974,183.597 Z" id="Path" fill="url(#linearGradient-3)" opacity="0.28"></path>
            <path d="M24.814,178.318 L34.474,181.128 C34.474,181.128 33.839,157.375 40.306,146.626 C42.174,134.341 26.822,22.004 22.732,2.926 C22.562,2.226 22.395,1.529 22.224,0.841 C24.618,37.551 27.219,152.009 24.814,178.319 L24.814,178.318 Z" id="Path" fill="url(#linearGradient-4)" opacity="0.33"></path>
            <g id="Group" transform="translate(0.000000, 106.000000)">
                <path d="M23.35,94.59 L37.724,95.216 C38.068,67.326 27.974,19.091 0.474,0.341 C14.474,17.717 24.599,38.967 23.349,94.591 L23.35,94.59 Z" id="Path" fill="url(#linearGradient-5)"></path>
                <path d="M2.414,2.87 C15.454,19.86 24.656,41.62 23.461,94.79 L33.287,95.216 C33.632,84.486 33.881,27.906 2.415,2.87 L2.414,2.87 Z" id="Path" fill="url(#linearGradient-6)" opacity="0.17"></path>
            </g>
            <g id="Group" transform="translate(34.000000, 142.000000)">
                <path d="M16.662,59.528 C17.108,61.528 2.287,62.966 1.787,62.528 C1.287,62.09 -8.963,-6.347 39.225,0.528 C13.099,1.653 11.1,37.466 16.662,59.528 L16.662,59.528 Z" id="Path" fill="url(#linearGradient-7)"></path>
                <path d="M1.784,62.528 C2.07,62.778 7.041,62.415 11.161,61.683 C10.551,55.911 7.638,24.423 14.651,5.82 C-4.806,21.23 1.398,62.19 1.785,62.528 L1.784,62.528 Z" id="Path" fill="url(#linearGradient-8)" opacity="0.08"></path>
            </g>
            <g id="Group" transform="translate(24.000000, 162.000000)">
                <ellipse id="Oval" fill="url(#radialGradient-9)" opacity="0.47" cx="16.462" cy="7.045" rx="6.623" ry="6.096"></ellipse>
                <ellipse id="Oval" fill="url(#radialGradient-10)" opacity="0.47" cx="6.745" cy="7.045" rx="6.623" ry="6.096"></ellipse>
                <circle id="Oval" fill="#FFFFFF" cx="6.745" cy="7.044" r="3.797"></circle>
                <circle id="Oval" fill="#FFFFFF" cx="16.276" cy="7.044" r="3.797"></circle>
            </g>
            <g id="Group" transform="translate(3.000000, 179.000000)" fill="#A0CB29">
                <path d="M0.724,12.716 L6.099,21.966 L9.099,21.966 M15.724,25.966 L22.224,25.966 L12.6,0.09 M53.35,24.34 L57.6,24.34 L60.724,4.34 M64.224,19.09 L67.849,19.09 L69.599,11.716" id="Shape"></path>
            </g>
        </g>
    </g>
</svg>